<svg style="height:512px;width:512px" version="1.1" viewBox="0 0 512 512" xmlns="http://www.w3.org/2000/svg"><path d="m0 0v512h512v-512" fill="#fff"/><path fill="#000" d="m170.39 108.9v228.96c-11.76-4.3211-25.658-5.6084-39.977-2.8378-34.399 6.6178-58.084 33.759-52.904 60.591 5.1723 26.847 37.236 43.23 71.628 36.604 30.521-5.88 52.565-27.924 53.514-51.609h0.196v-213.34l199.9-24.791v166.32c-11.768-4.3134-25.651-5.586-39.97-2.8231-34.406 6.6101-58.076 33.752-52.92 60.591 5.1723 26.839 37.23 43.222 71.629 36.59 30.528-5.8723 52.58-27.924 53.514-51.594h0.196v-273.25z"/></svg>